# 3ds Max Wavefront OBJ Exporter v0.97b - (c)2007 guruware
# File Created: 08.06.2017 11:59:10

mtllib Ground.mtl

#
# object Cylinder001
#

v  95.7668 159.3570 12.9380
v  102.9049 139.1657 13.9856
v  96.5090 139.1657 -0.8045
v  90.4849 159.3570 -0.5200
v  90.6350 159.3570 -20.1033
v  94.5614 139.1657 -22.3261
v  82.1942 139.1657 -25.9172
v  78.6633 159.3570 -23.3709
v  69.4528 159.3570 -32.0125
v  71.0411 139.1657 -35.4141
v  45.1547 139.1657 -37.5990
v  44.7368 159.3570 -33.8744
v  41.1122 139.1657 -37.4603
v  26.9179 139.1656 -18.7664
v  30.4192 159.3570 -15.6180
v  25.1569 139.1657 -17.3969
v  24.7818 159.3570 1.1275
v  18.3305 139.1657 1.0061
v  27.6005 139.1657 9.1057
v  33.5784 159.3570 8.4977
v  37.8112 139.1657 34.3681
v  42.6367 159.3570 33.9378
v  38.5692 139.1657 37.0639
v  49.0531 139.1657 42.6075
v  51.2945 159.3570 38.9821
v  73.3537 139.1657 35.7961
v  73.4684 159.3570 32.5985
v  75.9036 139.1657 35.5920
v  88.5265 139.1657 22.8664
v  83.8927 159.3570 21.0190
v  93.6663 159.3570 19.4559
v  97.7536 139.1657 21.1486
v  94.8435 96.0050 12.4401
v  91.8207 81.3975 14.6510
v  103.3884 81.3975 17.5221
v  105.1823 96.0050 15.0062
v  115.7639 96.0050 24.0589
v  115.2276 81.3975 27.6508
v  124.8476 81.3975 20.2305
v  124.3619 96.0050 17.4269
v  135.9833 81.3975 17.6551
v  134.3147 96.0050 15.1251
v  151.1100 81.3975 2.1165
v  149.4052 96.0050 -0.7994
v  151.2923 81.3975 -19.0616
v  148.7577 96.0050 -20.2232
v  114.9875 81.3975 -35.3685
v  113.6636 96.0050 -33.2191
v  112.8777 81.3975 -36.4352
v  104.2866 81.3975 -32.4399
v  105.9851 96.0050 -29.6483
v  95.0798 81.3975 -13.8379
v  96.8338 96.0050 -11.6805
v  94.0476 81.3975 -12.3366
v  94.4621 81.3975 1.5012
v  97.2043 96.0050 0.6873
v  92.4894 96.0050 8.0354
v  89.1868 81.3975 9.7227
v  152.1035 0.0000 21.2057
v  138.0296 0.0000 -2.7654
v  121.6236 0.0000 -37.6466
v  106.5302 0.0000 -43.4668
v  81.9882 0.0000 -58.8589
v  48.0356 0.0000 -63.2699
v  16.1307 0.0000 -62.1753
v  2.7857 0.0000 -40.4659
v  -11.1131 0.0000 -29.6575
v  -26.1343 0.0000 0.1691
v  -13.6015 0.0000 13.2967
v  4.5528 0.0000 37.3343
v  10.5348 0.0000 58.6099
v  33.6043 0.0000 67.5947
v  72.5636 0.0000 57.8355
v  92.6880 0.0000 56.2243
v  120.4642 0.0000 35.5993
v  125.9243 0.0000 32.8152
v  74.9766 0.0000 26.9707
v  93.3918 0.0000 31.5415
v  112.2394 0.0000 47.6659
v  127.5540 0.0000 35.8530
v  145.2815 0.0000 31.7532
v  160.6101 0.0000 18.3648
v  165.4156 0.0000 -12.5882
v  122.3648 0.0000 -47.3459
v  108.4985 0.0000 -54.3561
v  94.8217 0.0000 -47.9959
v  85.3056 0.0000 -25.8592
v  78.5217 0.0000 -15.9922
v  79.1817 0.0000 6.0369
v  70.7836 0.0000 19.1252
# 90 vertices

vn 0.8452 0.4667 -0.2603
vn 0.8427 0.4600 -0.2796
vn 0.8805 0.4495 -0.1508
vn 0.8819 0.4560 -0.1197
vn 0.9304 0.3638 -0.0454
vn 0.9147 0.3905 -0.1037
vn 0.3352 0.3476 -0.8757
vn 0.3493 0.3504 -0.8690
vn 0.5382 0.3744 -0.7551
vn 0.5517 0.3837 -0.7406
vn 0.4489 0.3939 -0.8021
vn 0.4262 0.3956 -0.8136
vn 0.0291 0.3945 -0.9184
vn 0.0711 0.3965 -0.9153
vn -0.0428 0.3937 -0.9182
vn -0.7904 0.4204 -0.4456
vn -0.7990 0.4135 -0.4366
vn -0.7312 0.4166 -0.5402
vn -0.8348 0.4253 -0.3496
vn -0.7822 0.4436 -0.4375
vn -0.8579 0.4605 -0.2279
vn -0.8552 0.4564 -0.2456
vn -0.6993 0.3866 0.6012
vn -0.7075 0.3915 0.5883
vn -0.7933 0.4133 0.4472
vn -0.8022 0.4263 0.4181
vn -0.8968 0.3843 0.2194
vn -0.7671 0.4215 0.4836
vn -0.7561 0.4306 0.4928
vn -0.5368 0.4194 0.7321
vn -0.5665 0.4080 0.7160
vn 0.3402 0.3119 0.8871
vn 0.3327 0.3164 0.8884
vn 0.2224 0.3348 0.9157
vn 0.5672 0.3630 0.7393
vn 0.4638 0.3739 0.8031
vn 0.5143 0.3449 0.7852
vn 0.5529 0.3767 0.7433
vn 0.6297 0.3630 0.6868
vn 0.5825 0.3804 0.7183
vn 0.8496 0.4314 0.3033
vn 0.7691 0.4405 0.4632
vn 0.0000 1.0000 -0.0000
vn -0.0000 1.0000 -0.0000
vn -0.6136 0.4478 0.6503
vn -0.6156 0.4479 0.6484
vn -0.5101 0.4112 0.7554
vn -0.5038 0.4115 0.7595
vn -0.6983 0.3889 0.6010
vn 0.6826 0.3308 0.6516
vn 0.4920 0.3791 0.7837
vn 0.4680 0.3833 0.7963
vn 0.5316 0.4114 0.7404
vn 0.5487 0.4069 0.7304
vn 0.8960 0.3326 0.2942
vn 0.9284 0.2994 0.2200
vn 0.9614 0.2752 -0.0072
vn 0.9592 0.2816 -0.0235
vn 0.5126 0.0390 -0.8577
vn 0.5985 0.1273 -0.7910
vn 0.4977 0.3389 -0.7984
vn 0.4369 0.3522 -0.8277
vn 0.5306 0.3480 -0.7729
vn -0.4807 0.4354 -0.7611
vn -0.7240 0.3919 -0.5676
vn -0.7431 0.3884 -0.5449
vn -0.8709 0.3120 -0.3796
vn -0.9361 0.3121 -0.1623
vn -0.9226 0.3243 -0.2090
vn -0.9394 0.2767 -0.2026
vn -0.9434 0.2814 -0.1758
vn -0.9363 0.3363 -0.1015
vn -0.9352 0.3512 -0.0450
vn 0.8179 0.4540 -0.3536
vn 0.8527 0.4259 -0.3024
vn 0.8774 0.3712 -0.3039
vn 0.4333 0.3573 -0.8274
vn 0.5201 0.3634 -0.7729
vn 0.3883 0.3821 -0.8386
vn 0.0545 0.3902 -0.9191
vn -0.8302 0.4118 -0.3758
vn -0.7555 0.4202 -0.5026
vn -0.7653 0.4485 -0.4617
vn -0.8320 0.4611 -0.3085
vn -0.7485 0.4035 0.5262
vn -0.7649 0.4164 0.4915
vn -0.8632 0.4049 0.3015
vn -0.7075 0.4436 0.5502
vn -0.4317 0.4318 0.7919
vn 0.3054 0.3178 0.8976
vn 0.2129 0.3327 0.9187
vn 0.4139 0.3874 0.8238
vn 0.5826 0.3647 0.7264
vn 0.5188 0.3653 0.7730
vn 0.4761 0.3849 0.7906
vn -0.6181 0.4479 0.6460
vn -0.5155 0.4109 0.7519
vn 0.5130 0.3751 0.7721
vn 0.4994 0.4071 0.7648
vn 0.8465 0.3418 0.4082
vn 0.9630 0.2586 0.0763
vn 0.7355 0.0948 -0.6708
vn 0.5799 0.2880 -0.7621
vn -0.7016 0.4024 -0.5881
vn -0.8808 0.3134 -0.3550
vn -0.9216 0.3244 -0.2132
vn -0.9351 0.2721 -0.2272
vn -0.9298 0.3673 0.0226
# 108 vertex normals

vt 0.7500 1.0000 1.0000
vt 0.7500 0.5000 1.0000
vt 0.8056 0.5000 1.0000
vt 0.8056 1.0000 1.0000
vt 0.8611 1.0000 1.0000
vt 0.8611 0.5000 1.0000
vt 0.9167 0.5000 1.0000
vt 0.9167 1.0000 1.0000
vt 0.9722 1.0000 1.0000
vt 0.9722 0.5000 1.0000
vt 0.5556 0.5000 1.0000
vt 0.0833 1.0000 1.0000
vt 0.0556 0.5000 1.0000
vt 0.0833 0.5000 1.0000
vt 0.1667 0.5000 1.0000
vt 0.1944 1.0000 1.0000
vt 0.1944 0.5000 1.0000
vt 0.2500 1.0000 1.0000
vt 0.2500 0.5000 1.0000
vt 0.3056 0.5000 1.0000
vt 0.3056 1.0000 1.0000
vt 0.3889 0.5000 1.0000
vt 0.4167 1.0000 1.0000
vt 0.4167 0.5000 1.0000
vt 0.4722 0.5000 1.0000
vt 0.4722 1.0000 1.0000
vt 0.5833 1.0000 1.0000
vt 0.5833 0.5000 1.0000
vt 0.6389 0.5000 1.0000
vt 0.6389 1.0000 1.0000
vt 0.6944 1.0000 1.0000
vt 0.6944 0.5000 1.0000
vt 0.3333 0.5000 1.0000
vt 0.7500 0.0000 1.0000
vt 0.8056 0.0000 1.0000
vt 0.8611 0.0000 1.0000
vt 0.9167 0.0000 1.0000
vt 0.9722 0.0000 1.0000
vt 1.0278 0.0000 1.0000
vt 0.0833 0.0000 1.0000
vt 0.0278 0.0000 1.0000
vt 0.1389 0.0000 1.0000
vt 0.1944 0.0000 1.0000
vt 0.2500 0.0000 1.0000
vt 0.3056 0.0000 1.0000
vt 0.3611 0.0000 1.0000
vt 0.4167 0.0000 1.0000
vt 0.4722 0.0000 1.0000
vt 0.5278 0.0000 1.0000
vt 0.5833 0.0000 1.0000
vt 0.6389 0.0000 1.0000
vt 0.6944 0.0000 1.0000
# 52 texture coords

g Cylinder001
usemtl Material__12
s 1
f 1/1/1 2/2/2 3/3/3 4/4/4 
f 5/5/5 4/4/4 3/3/3 6/6/6 
s 2
f 5/5/7 6/6/8 7/7/9 8/8/10 
f 9/9/11 8/8/10 7/7/9 10/10/12 
f 9/9/11 10/10/12 11/11/13 12/12/14 
f 12/12/14 11/13/13 13/14/15 
s 1
f 12/12/16 13/14/17 14/15/18 15/16/19 
f 15/16/19 14/15/18 16/17/20 
f 17/18/21 15/16/19 16/17/20 18/19/22 
s 2
f 17/18/23 18/19/24 19/20/25 20/21/26 
f 20/21/26 19/20/25 21/22/27 22/23/28 
f 22/23/28 21/22/27 23/24/29 
f 22/23/28 23/24/29 24/25/30 25/26/31 
s 4
f 25/26/32 24/25/33 26/11/34 27/27/35 
f 27/27/35 26/11/34 28/28/36 
f 27/27/35 28/28/36 29/29/37 30/30/38 
f 31/31/39 30/30/38 29/29/37 32/32/40 
f 1/1/41 31/31/39 32/32/40 2/2/42 
s 8
f 4/4/43 5/5/43 8/8/43 12/12/44 
f 8/8/43 9/9/43 12/12/44 
f 12/12/44 15/16/44 17/18/44 20/21/44 
f 20/21/44 22/23/43 25/26/43 30/30/43 
f 25/26/43 27/27/43 30/30/43 
f 12/12/44 20/21/44 30/30/43 4/4/43 
f 4/4/43 30/30/43 31/31/43 1/1/43 
s 1
f 33/1/45 34/2/46 35/3/47 36/4/48 
f 37/5/49 36/4/48 35/3/47 38/6/49 
s 2
f 37/5/50 38/6/50 39/7/51 40/8/52 
f 40/8/52 39/7/51 41/10/53 42/9/54 
f 42/9/54 41/10/53 43/11/55 44/12/56 
f 44/12/56 43/13/55 45/15/57 46/16/58 
s 4
f 46/16/59 45/15/60 47/33/61 48/23/62 
f 48/23/62 47/33/61 49/24/63 
s 1
f 48/23/64 49/24/64 50/25/65 51/26/66 
f 51/26/66 50/25/65 52/11/67 53/27/68 
f 53/27/68 52/11/67 54/28/69 
f 53/27/68 54/28/69 55/29/70 56/30/71 
f 57/31/72 56/30/71 55/29/70 58/32/73 
f 33/1/45 57/31/72 58/32/73 34/2/46 
s 8
f 36/4/43 37/5/43 40/8/43 44/12/43 
f 40/8/43 42/9/43 44/12/43 
f 44/12/43 46/16/43 48/23/43 56/30/43 
f 51/26/43 53/27/43 56/30/43 48/23/43 
f 36/4/43 44/12/43 56/30/43 57/31/43 
f 36/4/43 57/31/43 33/1/43 
usemtl Material__11
s 1
f 2/2/2 59/34/74 60/35/75 3/3/3 
f 60/35/75 61/36/76 6/6/6 3/3/3 
s 2
f 6/6/8 61/36/77 62/37/78 7/7/9 
f 62/37/78 63/38/79 10/10/12 7/7/9 
f 10/10/12 63/38/79 64/39/80 11/11/13 
f 65/40/15 13/14/15 11/13/13 64/41/80 
s 1
f 13/14/17 65/40/81 66/42/82 14/15/18 
f 67/43/83 16/17/20 14/15/18 66/42/82 
f 67/43/83 68/44/84 18/19/22 16/17/20 
s 2
f 18/19/24 68/44/85 69/45/86 19/20/25 
f 19/20/25 69/45/86 70/46/87 21/22/27 
f 71/47/88 23/24/29 21/22/27 70/46/87 
f 23/24/29 71/47/88 72/48/89 24/25/30 
s 4
f 24/25/33 72/48/90 73/49/91 26/11/34 
f 74/50/92 28/28/36 26/11/34 73/49/91 
f 74/50/92 75/51/93 29/29/37 28/28/36 
f 75/51/93 76/52/94 32/32/40 29/29/37 
f 76/52/94 59/34/95 2/2/42 32/32/40 
s 1
f 34/2/46 77/34/96 78/35/97 35/3/47 
f 78/35/97 79/36/49 38/6/49 35/3/47 
s 2
f 38/6/50 79/36/50 80/37/98 39/7/51 
f 39/7/51 80/37/98 81/38/99 41/10/53 
f 41/10/53 81/38/99 82/39/100 43/11/55 
f 43/13/55 82/41/100 83/42/101 45/15/57 
s 4
f 45/15/60 83/42/102 84/44/103 47/33/61 
f 85/47/63 49/24/63 47/33/61 84/44/103 
s 1
f 49/24/64 85/47/64 86/48/104 50/25/65 
f 50/25/65 86/48/104 87/49/105 52/11/67 
f 88/50/106 54/28/69 52/11/67 87/49/105 
f 88/50/106 89/51/107 55/29/70 54/28/69 
f 89/51/107 90/52/108 58/32/73 55/29/70 
f 90/52/108 77/34/96 34/2/46 58/32/73 
# 67 polygons - 10 triangles

