# 3ds Max Wavefront OBJ Exporter v0.97b - (c)2007 guruware
# File Created: 27.05.2017 17:17:18

mtllib Obj_2.mtl

#
# object Box021
#

v  28.6539 46.8957 -8.2510
v  28.6539 46.8957 -20.8500
v  -24.9904 39.1072 -20.8500
v  28.6539 46.8957 8.2510
v  28.6539 46.8957 20.8500
v  -24.9904 39.1072 20.8500
v  30.9420 47.1130 20.8500
v  -24.9904 1.0670 20.8500
v  30.9420 1.0670 -20.8500
v  30.9420 3.7598 -14.3045
v  30.9420 3.7598 -6.4454
v  30.9420 1.0670 20.8500
v  -24.9904 1.0670 -20.8500
v  30.9420 47.1130 -20.8500
v  30.9303 54.5302 -8.2510
v  28.6653 55.8331 -8.2510
v  28.6653 55.8331 8.2510
v  30.9303 54.5302 8.2510
v  30.9420 47.1130 -8.2510
v  30.9420 47.1130 8.2510
v  30.9420 17.5852 -6.4454
v  30.9420 17.5852 -14.3045
v  -27.1465 3.9599 23.6066
v  38.5672 3.9599 23.6066
v  38.5672 3.9599 -22.6370
v  -27.1465 3.9599 -22.6370
v  -27.1465 0.0045 23.6066
v  38.5672 0.0045 23.6066
v  38.5672 0.0045 -22.6370
v  -27.1465 0.0045 -22.6370
v  27.8246 0.1053 22.6330
v  27.8246 0.1053 18.7491
v  31.9674 0.1053 18.7491
v  31.9674 0.1053 22.6330
v  27.8246 46.2981 22.6330
v  31.9674 46.2981 22.6330
v  31.9674 46.2981 18.7491
v  27.8246 46.2981 18.7491
v  -26.3965 1.0670 22.6330
v  -26.3965 1.0670 18.7491
v  -22.2537 1.0670 18.7491
v  -22.2537 1.0670 22.6330
v  -26.3965 39.0359 22.6330
v  -22.2537 39.0359 22.6330
v  -22.2537 39.0359 18.7491
v  -26.3965 39.0359 18.7491
v  -26.3965 1.0670 -18.1576
v  -26.3965 1.0670 -22.0415
v  -22.2537 1.0670 -22.0415
v  -22.2537 1.0670 -18.1576
v  -26.3965 39.0359 -18.1576
v  -22.2537 39.0359 -18.1576
v  -22.2537 39.0359 -22.0415
v  -26.3965 39.0359 -22.0415
v  27.8246 1.0670 -18.7557
v  27.8246 1.0670 -22.6395
v  31.9674 1.0670 -22.6395
v  31.9674 1.0670 -18.7557
v  27.8246 47.2597 -18.7557
v  31.9674 47.2597 -18.7557
v  31.9674 47.2597 -22.6395
v  27.8246 47.2597 -22.6395
v  -26.1716 26.2945 21.9220
v  -26.1716 26.2945 -21.5768
v  31.0324 26.2945 -21.5768
v  31.0324 26.2945 21.9220
v  -26.1716 29.3732 21.9220
v  31.0324 29.3732 21.9220
v  31.0324 29.3732 -21.5768
v  -26.1716 29.3732 -21.5768
v  27.6625 56.2637 -8.8389
v  28.3642 57.4791 -8.8389
v  32.4703 55.1085 -8.8389
v  31.7686 53.8931 -8.8389
v  27.6625 56.2637 8.4254
v  31.7686 53.8931 8.4254
v  32.4703 55.1085 8.4254
v  28.3642 57.4791 8.4254
v  -26.9734 37.0735 17.8476
v  -27.3911 40.0416 17.8476
v  29.2854 47.8645 17.8476
v  29.7032 44.8964 17.8476
v  -26.9734 37.0735 23.0003
v  29.7032 44.8964 23.0003
v  29.2854 47.8645 23.0003
v  -27.3911 40.0416 23.0003
v  28.5973 47.9615 8.4771
v  29.2990 49.1769 8.4771
v  33.4051 46.8062 8.4771
v  32.7034 45.5908 8.4771
v  28.5973 47.9615 25.7415
v  32.7034 45.5908 25.7415
v  33.4051 46.8062 25.7415
v  29.2990 49.1769 25.7415
v  28.5973 47.9615 -25.5474
v  29.2990 49.1769 -25.5474
v  33.4051 46.8062 -25.5474
v  32.7034 45.5908 -25.5474
v  28.5973 47.9615 -8.2831
v  32.7034 45.5908 -8.2831
v  33.4051 46.8062 -8.2831
v  29.2990 49.1769 -8.2831
v  -25.9598 37.2758 -1.8890
v  -26.3776 40.2439 -1.8890
v  27.7698 47.8645 -1.8890
v  28.1876 44.8964 -1.8890
v  -25.9598 37.2758 2.1131
v  28.1876 44.8964 2.1131
v  27.7698 47.8645 2.1131
v  -26.3776 40.2439 2.1131
v  32.3822 36.4700 9.1030
v  32.3822 36.4700 -8.8052
v  32.3822 42.5824 -8.8052
v  32.3822 42.5824 9.1030
v  30.5163 36.4700 9.1030
v  30.5163 36.4700 -8.8052
v  30.5163 42.5824 -8.8052
v  30.5163 42.5824 9.1030
v  -7.7821 41.1866 11.1882
v  -1.2853 42.0229 11.1882
v  -1.4500 43.3023 11.1882
v  -7.9468 42.4661 11.1882
v  -1.2853 42.0229 6.9664
v  -1.4500 43.3023 6.9664
v  -1.4500 43.3023 9.6355
v  -1.2853 42.0229 9.6355
v  -1.2853 42.0229 5.4137
v  -7.7821 41.1866 5.4137
v  -7.9468 42.4661 5.4137
v  -1.4500 43.3023 5.4137
v  -7.7821 41.1866 9.6355
v  -7.9468 42.4661 9.6355
v  -7.9468 42.4661 6.9664
v  -7.7821 41.1866 6.9664
v  -8.4492 46.2619 6.9664
v  -8.4492 46.2619 9.6355
v  30.3950 22.2192 -8.0344
v  30.3950 22.2192 -11.4652
v  31.7662 22.2192 -11.4652
v  31.7662 22.2192 -8.0344
v  30.3950 25.8645 -11.4652
v  31.7662 25.8645 -11.4652
v  30.3950 25.8645 -8.0344
v  31.7662 25.8645 -8.0344
v  31.7662 23.2324 -10.5116
v  31.7662 23.2324 -8.9880
v  31.7662 24.8513 -10.5116
v  31.7662 24.8513 -8.9880
v  36.2888 23.2324 -10.5116
v  36.2888 23.2324 -8.9880
v  36.2888 24.8513 -10.5116
v  36.2888 24.8513 -8.9880
v  35.1628 22.5466 -9.2752
v  36.0391 22.5466 -9.2752
v  36.0391 24.0572 -9.2752
v  35.1628 24.0572 -9.2752
v  36.0391 22.5466 -10.2145
v  36.0391 24.0572 -10.2145
v  35.1628 22.5466 -10.2145
v  35.1628 24.0572 -10.2145
v  34.4918 19.3590 -8.6277
v  34.4918 19.3590 -10.8250
v  36.6331 19.3590 -10.8250
v  36.6331 19.3590 -8.6277
v  34.4918 22.8550 -8.6277
v  36.6331 22.8550 -8.6277
v  36.6331 22.8550 -10.8250
v  34.4918 22.8550 -10.8250
v  36.6331 22.3435 -8.6277
v  34.4918 22.3435 -8.6277
v  34.4918 19.8705 -8.6277
v  36.6331 19.8705 -8.6277
v  36.6331 22.3435 -10.8250
v  36.6331 19.8705 -10.8250
v  34.4918 22.3435 -10.8250
v  34.4918 19.8705 -10.8250
v  -26.9734 37.0735 -22.7436
v  -27.3911 40.0416 -22.7436
v  29.2854 47.8645 -22.7436
v  29.7032 44.8964 -22.7436
v  -26.9734 37.0735 -17.5909
v  29.7032 44.8964 -17.5909
v  29.2854 47.8645 -17.5909
v  -27.3911 40.0416 -17.5909
v  32.4022 16.5519 -13.5200
v  32.4022 18.4965 -13.5200
v  32.4022 18.4965 -7.1964
v  32.4022 16.5519 -7.1964
v  29.4086 16.5519 -13.5200
v  29.4086 16.5519 -7.1964
v  29.4086 16.5519 -14.8729
v  29.4086 18.4965 -14.8729
v  32.4022 18.4965 -14.8729
v  32.4022 16.5519 -14.8729
v  29.4086 18.4965 -7.1964
v  29.4086 18.4965 -13.5200
v  29.4086 18.4965 -5.8435
v  29.4086 16.5519 -5.8435
v  32.4022 16.5519 -5.8435
v  32.4022 18.4965 -5.8435
v  32.4022 3.2697 -14.8729
v  29.4086 3.2697 -14.8729
v  32.4022 3.2697 -13.5200
v  29.4086 3.2697 -13.5200
v  32.4022 3.2697 -5.8435
v  32.4022 3.2697 -7.1964
v  29.4086 3.2697 -5.8435
v  29.4086 3.2697 -7.1964
v  29.9513 10.9752 10.7000
v  29.9513 10.9752 5.1418
v  32.0891 11.0343 5.1927
v  32.0891 11.0343 10.6491
v  29.8869 17.7639 5.4193
v  31.7263 17.7639 5.4193
v  31.7908 12.4055 5.4193
v  29.9513 12.4055 5.4193
v  29.8869 19.0204 5.1418
v  29.8869 19.0204 10.7000
v  32.0247 18.9613 10.6491
v  32.0247 18.9613 5.1927
v  29.9513 12.4055 10.4225
v  31.7908 12.4055 10.4225
v  31.7263 17.7639 10.4225
v  29.8869 17.7639 10.4225
v  32.3075 12.4021 6.0787
v  32.3075 12.4021 9.7631
v  32.1557 12.4055 5.1414
v  32.2431 17.7665 9.7631
v  32.2431 17.7665 6.0787
v  32.0913 17.7639 10.7003
v  31.7908 12.4021 9.7631
v  31.7908 12.4021 6.0787
v  31.2939 12.4021 6.0787
v  31.2939 12.4021 9.7631
v  31.7263 17.7665 6.0787
v  31.2295 17.7665 6.0787
v  31.7263 17.7665 9.7631
v  31.2295 17.7665 9.7631
v  32.0913 17.7639 5.1415
v  29.8869 17.7639 5.0268
v  29.9513 12.4055 5.0268
v  32.1557 12.4055 10.7004
v  29.9513 12.4055 10.8150
v  29.8869 17.7639 10.8150
v  38.4229 1.0615 -3.1793
v  39.5321 1.0615 -3.1793
v  39.5321 1.9989 -3.1793
v  38.4229 1.9989 -3.1793
v  40.6413 1.0615 -3.1793
v  40.6413 1.9989 -3.1793
v  39.5321 2.9363 -3.1793
v  38.4229 2.9363 -3.1793
v  38.4229 1.9989 -19.2700
v  38.4229 1.0615 -19.2700
v  40.6413 1.9989 -19.2700
v  39.5321 1.9989 -19.2700
v  40.6413 1.0615 -19.2700
v  38.4229 2.9363 -19.2700
v  39.5321 2.9363 -19.2700
v  39.5321 1.0615 -19.2700
# 260 vertices

vn -0.1940 0.9810 0.0000
vn -0.1818 0.9833 0.0000
vn -0.2185 0.9758 0.0000
vn -0.2185 0.9758 -0.0000
vn 0.0000 0.0000 1.0000
vn 1.0000 0.0000 -0.0000
vn 0.0000 0.0000 -1.0000
vn -1.0000 0.0000 -0.0000
vn 0.6636 0.7481 0.0000
vn 0.6636 0.7481 -0.0000
vn -0.1449 0.9895 0.0000
vn -0.1449 0.9895 -0.0000
vn 1.0000 0.0010 0.0000
vn 0.0000 -0.0000 -1.0000
vn -1.0000 0.0008 -0.0000
vn -0.0000 0.0000 1.0000
vn 0.0000 1.0000 -0.0000
vn 0.0000 -1.0000 -0.0000
vn -0.6649 -0.7469 -0.0000
vn 0.9365 -0.3507 -0.0000
vn 0.6649 0.7469 -0.0000
vn -0.9365 0.3507 -0.0000
vn 0.2082 -0.9781 -0.0000
vn 0.9959 0.0909 -0.0000
vn -0.2082 0.9781 -0.0000
vn -0.9959 -0.0909 -0.0000
vn 0.9365 -0.3507 0.0000
vn -0.0000 0.0000 -1.0000
vn 0.2121 -0.9773 -0.0000
vn -0.2121 0.9773 -0.0000
vn 0.9965 0.0832 -0.0000
vn -0.9965 -0.0832 -0.0000
vn 0.5461 0.8377 -0.0000
vn -0.9963 -0.0855 -0.0000
vn -0.1947 0.9809 -0.0000
vn -0.0000 -0.0000 -1.0000
vn 1.0000 -0.0000 -0.0000
vn 0.0426 -0.9991 -0.0000
vn 0.0426 0.9991 -0.0000
vn 0.9947 -0.1030 -0.0000
vn 0.9865 -0.0349 -0.1600
vn 0.9930 0.1177 -0.0000
vn 0.9863 0.0400 0.1599
vn 1.0000 0.0078 -0.0000
vn 0.0400 0.0456 -0.9982
vn 0.0250 0.0286 -0.9993
vn 0.0376 0.0430 -0.9984
vn 0.0518 0.0591 -0.9969
vn 0.0389 -0.0390 -0.9985
vn 0.0260 -0.0520 -0.9983
vn 0.0519 -0.0259 -0.9983
vn 0.0387 -0.0389 0.9985
vn 0.0249 -0.0250 0.9994
vn 0.0386 -0.0388 0.9985
vn 0.0518 -0.0520 0.9973
vn 0.0402 0.0431 0.9983
vn 0.0263 0.0592 0.9979
vn 0.0379 0.0458 0.9982
vn 0.0519 0.0296 0.9982
vn 0.9863 0.0400 -0.1599
vn 1.0000 0.0078 0.0000
vn 0.9865 -0.0349 0.1600
vn 0.0020 1.0000 0.0063
vn 0.0020 1.0000 -0.0063
vn 0.0016 -1.0000 -0.0049
vn 0.0016 -1.0000 0.0049
# 66 vertex normals

vt 0.5000 0.6979 0.0000
vt 0.5000 1.0000 0.0000
vt 0.0000 1.0000 0.0000
vt 0.5000 0.3021 0.0000
vt 0.5000 0.0000 0.0000
vt 0.0000 0.0000 0.0000
vt 1.0000 0.5000 0.0000
vt 0.6568 0.0000 0.0000
vt 0.6568 0.2500 0.0000
vt 0.3432 0.2500 0.0000
vt 1.0000 0.0000 0.0000
vt 0.0000 0.5000 0.0000
vt 1.0000 1.0000 0.0000
vt 1.0000 0.6979 0.0000
vt 1.0000 0.3021 0.0000
vt 0.3432 0.5000 0.0000
vt 0.6568 0.5000 0.0000
vt 0.6979 1.0000 0.0000
vt 0.3021 1.0000 0.0000
vt 0.6667 0.0000 0.0000
vt 0.6667 1.0000 0.0000
vt 0.3333 1.0000 0.0000
vt 0.3333 0.0000 0.0000
vt 1.0000 0.8537 0.0000
vt 0.0000 0.8537 0.0000
vt 0.0000 0.1463 0.0000
vt 1.0000 0.1463 0.0000
vt 0.8502 0.0000 0.0000
vt 0.8502 1.0000 0.0000
vt 0.1498 1.0000 0.0000
vt 0.1498 0.0000 0.0000
vt 0.8328 0.0000 0.0000
vt 0.8328 1.0000 0.0000
vt 0.1672 1.0000 0.0000
vt 0.1672 0.0000 0.0000
vt 0.5000 0.5000 0.0000
# 36 texture coords

g Box021
usemtl 13___Default
s 4
f 1/1/1 2/2/2 3/3/3 4/4/1 
f 5/5/2 4/4/1 3/3/3 6/6/4 
s 8
f 7/7/5 5/2/5 6/3/5 8/6/5 
usemtl 09___Default
s 16
f 9/8/6 10/9/6 11/10/6 12/6/6 
usemtl 13___Default
s 32
f 9/6/7 13/11/7 14/12/7 
s 64
f 8/11/8 6/13/8 3/3/8 13/6/8 
s 4
f 15/14/9 16/1/10 17/4/9 18/15/9 
f 14/13/11 2/2/2 1/1/1 19/14/12 
f 5/5/2 7/11/12 20/15/11 4/4/1 
s off
f 20/15/13 19/14/13 15/14/13 18/15/13 
f 19/14/14 1/1/14 16/1/14 15/14/14 
f 1/1/15 4/4/15 17/4/15 16/1/15 
f 4/4/16 20/15/16 18/15/16 17/4/16 
s 16
f 7/12/6 21/16/6 22/17/6 14/7/6 
f 7/12/6 12/6/6 11/10/6 21/16/6 
usemtl 02___Default
f 22/17/6 21/16/6 11/10/6 10/9/6 
usemtl 13___Default
f 9/8/6 14/7/6 22/17/6 10/9/6 
s 8
f 8/6/5 12/11/5 7/7/5 
s 32
f 3/13/7 2/2/7 14/12/7 13/11/7 
s 16
f 14/7/6 19/18/6 20/19/6 7/12/6 
usemtl 09___Default
s 4
f 23/6/17 24/11/17 25/13/17 26/3/17 
s 8
f 27/6/5 28/11/5 24/13/5 23/3/5 
s 16
f 28/6/6 29/11/6 25/13/6 24/3/6 
s 32
f 29/6/7 30/11/7 26/13/7 25/3/7 
s 64
f 30/6/8 27/11/8 23/13/8 26/3/8 
s 2
f 31/11/18 32/13/18 33/3/18 34/6/18 
s 4
f 35/6/17 36/11/17 37/13/17 38/3/17 
s 8
f 31/6/5 34/11/5 36/13/5 35/3/5 
s 16
f 34/6/6 33/11/6 37/13/6 36/3/6 
s 32
f 33/6/7 32/11/7 38/13/7 37/3/7 
s 64
f 32/6/8 31/11/8 35/13/8 38/3/8 
s 2
f 39/11/18 40/13/18 41/3/18 42/6/18 
s 4
f 43/6/17 44/11/17 45/13/17 46/3/17 
s 8
f 39/6/5 42/11/5 44/13/5 43/3/5 
s 16
f 42/6/6 41/11/6 45/13/6 44/3/6 
s 32
f 41/6/7 40/11/7 46/13/7 45/3/7 
s 64
f 40/6/8 39/11/8 43/13/8 46/3/8 
s 2
f 47/11/18 48/13/18 49/3/18 50/6/18 
s 4
f 51/6/17 52/11/17 53/13/17 54/3/17 
s 8
f 47/6/5 50/11/5 52/13/5 51/3/5 
s 16
f 50/6/6 49/11/6 53/13/6 52/3/6 
s 32
f 49/6/7 48/11/7 54/13/7 53/3/7 
s 64
f 48/6/8 47/11/8 51/13/8 54/3/8 
s 2
f 55/11/18 56/13/18 57/3/18 58/6/18 
s 4
f 59/6/17 60/11/17 61/13/17 62/3/17 
s 8
f 55/6/5 58/11/5 60/13/5 59/3/5 
s 16
f 58/6/6 57/11/6 61/13/6 60/3/6 
s 32
f 57/6/7 56/11/7 62/13/7 61/3/7 
s 64
f 56/6/8 55/11/8 59/13/8 62/3/8 
usemtl 14___Default
s 2
f 63/11/18 64/13/18 65/3/18 66/6/18 
s 4
f 67/6/17 68/11/17 69/13/17 70/3/17 
s 8
f 63/6/5 66/11/5 68/13/5 67/3/5 
s 16
f 66/6/6 65/11/6 69/13/6 68/3/6 
s 32
f 65/6/7 64/11/7 70/13/7 69/3/7 
s 64
f 64/6/8 63/11/8 67/13/8 70/3/8 
s 2
f 71/11/7 72/13/7 73/3/7 74/6/7 
s 4
f 75/6/5 76/11/5 77/13/5 78/3/5 
s 8
f 71/6/19 74/11/19 76/13/19 75/3/19 
s 16
f 74/6/20 73/11/20 77/13/20 76/3/20 
s 32
f 73/6/21 72/11/21 78/13/21 77/3/21 
s 64
f 72/6/22 71/11/22 75/13/22 78/3/22 
s 2
f 79/11/7 80/13/7 81/3/7 82/6/7 
s 4
f 83/6/5 84/11/5 85/13/5 86/3/5 
s 8
f 79/6/23 82/11/23 84/13/23 83/3/23 
s 16
f 82/6/24 81/11/24 85/13/24 84/3/24 
s 32
f 81/6/25 80/11/25 86/13/25 85/3/25 
s 64
f 80/6/26 79/11/26 83/13/26 86/3/26 
s 2
f 87/11/7 88/13/7 89/3/7 90/6/7 
s 4
f 91/6/5 92/11/5 93/13/5 94/3/5 
s 8
f 87/6/19 90/11/19 92/13/19 91/3/19 
s 16
f 90/6/27 89/11/20 93/13/27 92/3/27 
s 32
f 89/6/21 88/11/21 94/13/21 93/3/21 
s 64
f 88/6/22 87/11/22 91/13/22 94/3/22 
s 2
f 95/11/7 96/13/7 97/3/7 98/6/7 
s 4
f 99/6/5 100/11/5 101/13/5 102/3/5 
s 8
f 95/6/19 98/11/19 100/13/19 99/3/19 
s 16
f 98/6/27 97/11/20 101/13/27 100/3/27 
s 32
f 97/6/21 96/11/21 102/13/21 101/3/21 
s 64
f 96/6/22 95/11/22 99/13/22 102/3/22 
s 2
f 103/11/28 104/13/28 105/3/28 106/6/28 
s 4
f 107/6/5 108/11/5 109/13/5 110/3/5 
s 8
f 103/6/29 106/11/29 108/13/29 107/3/29 
s 16
f 106/6/24 105/11/24 109/13/24 108/3/24 
s 32
f 105/6/30 104/11/30 110/13/30 109/3/30 
s 64
f 104/6/26 103/11/26 107/13/26 110/3/26 
usemtl 09___Default
s 4
f 111/6/6 112/11/6 113/13/6 114/3/6 
s 8
f 115/6/18 116/11/18 112/13/18 111/3/18 
s 16
f 116/6/7 117/11/7 113/13/7 112/3/7 
s 32
f 117/6/17 118/11/17 114/13/17 113/3/17 
s 64
f 118/6/5 115/11/5 111/13/5 114/3/5 
usemtl 02___Default
s 8
f 119/6/5 120/11/5 121/13/5 122/3/5 
s 16
f 123/20/31 124/21/31 125/22/31 126/23/31 
s 32
f 127/6/7 128/11/7 129/13/7 130/3/7 
s 64
f 131/20/32 132/21/32 133/22/32 134/23/32 
s 16
f 127/11/31 130/13/31 124/21/31 123/20/31 
f 121/3/31 120/6/31 126/23/31 125/22/31 
s 64
f 119/11/32 122/13/32 132/21/32 131/20/32 
f 129/3/32 128/6/32 134/23/32 133/22/32 
s off
f 125/22/33 124/21/33 135/21/33 136/22/33 
s 1
f 135/23/34 133/13/34 132/3/34 136/20/34 
s off
f 125/22/35 132/3/35 122/13/35 121/13/35 
f 129/13/35 133/22/35 124/21/35 130/13/35 
f 125/22/5 136/22/5 132/3/5 
f 133/22/36 135/23/36 124/21/36 
s 8
f 137/6/18 138/11/18 139/13/18 140/3/18 
s 16
f 138/6/7 141/11/7 142/13/7 139/3/7 
s 32
f 141/6/17 143/11/17 144/13/17 142/3/17 
s 64
f 143/6/5 137/11/5 140/13/5 144/3/5 
s off
f 140/3/6 139/13/6 145/13/6 146/3/6 
f 139/3/6 142/13/6 147/13/6 145/3/6 
f 142/3/6 144/13/6 148/13/6 147/3/6 
f 144/3/6 140/13/6 146/13/6 148/3/6 
f 146/3/18 145/13/18 149/13/18 150/3/18 
f 145/3/7 147/13/7 151/13/7 149/3/7 
f 147/3/17 148/13/17 152/13/17 151/3/17 
f 148/3/5 146/13/5 150/13/5 152/3/5 
f 151/13/6 152/13/6 150/13/6 149/13/6 
s 8
f 153/6/5 154/11/5 155/13/5 156/3/5 
s 16
f 154/6/6 157/11/6 158/13/6 155/3/6 
s 32
f 157/6/7 159/11/7 160/13/7 158/3/7 
s 64
f 159/6/8 153/11/8 156/13/8 160/3/8 
s 2
f 161/11/18 162/13/18 163/3/18 164/6/18 
s 4
f 165/6/17 166/11/17 167/13/17 168/3/17 
usemtl 15___Default
s 8
f 169/24/5 170/25/5 171/26/5 172/27/5 
s 16
f 173/24/6 169/25/6 172/26/6 174/27/6 
s 32
f 175/24/7 173/25/7 174/26/7 176/27/7 
s 64
f 170/24/8 175/25/8 176/26/8 171/27/8 
usemtl 02___Default
s 8
f 166/13/5 165/3/5 170/25/5 169/24/5 
f 161/6/5 164/11/5 172/27/5 171/26/5 
s 16
f 167/13/6 166/3/6 169/25/6 173/24/6 
f 164/6/6 163/11/6 174/27/6 172/26/6 
s 32
f 168/13/7 167/3/7 173/25/7 175/24/7 
f 163/6/7 162/11/7 176/27/7 174/26/7 
s 64
f 165/13/8 168/3/8 175/25/8 170/24/8 
f 162/6/8 161/11/8 171/27/8 176/26/8 
usemtl 14___Default
s 2
f 177/11/7 178/13/7 179/3/7 180/6/7 
s 4
f 181/6/5 182/11/5 183/13/5 184/3/5 
s 8
f 177/6/23 180/11/23 182/13/23 181/3/23 
s 16
f 180/6/24 179/11/24 183/13/24 182/3/24 
s 32
f 179/6/25 178/11/25 184/13/25 183/3/25 
s 64
f 178/6/26 177/11/26 181/13/26 184/3/26 
usemtl 09___Default
s 4
f 185/28/37 186/29/37 187/30/37 188/31/37 
s 8
f 189/28/18 185/29/18 188/30/18 190/31/18 
s 16
f 191/6/7 192/11/7 193/13/7 194/3/7 
s 32
f 195/28/17 187/29/17 186/30/17 196/31/17 
s 64
f 197/6/5 198/11/5 199/13/5 200/3/5 
s 4
f 194/11/6 193/13/6 186/29/37 185/28/37 
f 200/3/37 199/6/6 188/31/37 187/30/37 
s 32
f 197/11/17 200/13/17 187/29/17 195/28/17 
f 193/3/17 192/6/17 196/31/17 186/30/17 
s off
f 191/11/7 194/13/7 201/13/7 202/11/7 
f 194/13/6 185/29/6 203/29/6 201/13/6 
f 185/29/5 189/28/5 204/28/5 203/29/5 
f 188/30/37 199/3/37 205/3/37 206/30/37 
f 199/3/5 198/6/5 207/6/5 205/3/5 
f 190/31/7 188/30/7 206/30/7 208/31/7 
s 8
f 209/6/38 210/11/38 211/13/38 212/3/38 
s 16
f 213/32/7 214/33/7 215/34/7 216/35/7 
usemtl 14___Default
s 32
f 217/6/39 218/11/39 219/13/39 220/3/39 
usemtl 09___Default
s 64
f 221/32/5 222/33/5 223/34/5 224/35/5 
s off
f 212/3/40 211/13/40 225/13/40 226/3/40 
f 211/3/41 227/34/41 225/3/41 
usemtl 14___Default
f 220/3/42 219/13/42 228/13/42 229/3/42 
f 219/3/43 230/34/43 228/3/43 
usemtl 09___Default
f 231/3/17 232/13/17 233/13/17 234/3/17 
f 232/3/5 235/13/5 236/13/5 233/3/5 
usemtl 14___Default
f 235/3/18 237/13/18 238/13/18 236/3/18 
usemtl 09___Default
f 237/3/36 231/13/36 234/13/36 238/3/36 
usemtl 08___Default
f 236/13/44 238/13/44 234/13/44 233/13/44 
usemtl 14___Default
s 16
f 217/11/45 220/13/46 239/33/47 240/32/48 
usemtl 09___Default
f 211/3/49 210/6/50 241/35/49 227/34/51 
s 64
f 209/11/52 212/13/53 242/33/54 243/32/55 
usemtl 14___Default
f 219/3/56 218/6/57 244/35/58 230/34/59 
s off
f 239/33/60 220/13/60 229/13/60 
usemtl 09___Default
f 215/34/61 214/33/61 235/13/61 232/3/61 
f 242/33/62 212/13/62 226/13/62 
f 223/34/44 222/33/44 231/13/44 237/3/44 
f 216/35/17 215/34/17 227/34/17 241/35/17 
f 215/34/63 232/3/63 225/3/63 227/34/63 
f 232/13/17 231/3/17 226/3/17 225/13/17 
f 231/13/64 222/33/64 242/33/64 226/13/64 
f 222/33/17 221/32/17 243/32/17 242/33/17 
usemtl 14___Default
f 224/35/18 223/34/18 230/34/18 244/35/18 
f 223/34/65 237/3/65 228/3/65 230/34/65 
f 237/13/18 235/3/18 229/3/18 228/13/18 
f 235/13/66 214/33/66 239/33/66 229/13/66 
f 214/33/18 213/32/18 240/32/18 239/33/18 
usemtl 09___Default
s 1
f 245/6/5 246/5/5 247/36/5 248/12/5 
f 246/5/5 249/11/5 250/7/5 247/36/5 
f 248/12/5 247/36/5 251/2/5 252/3/5 
s off
f 245/6/8 248/12/8 253/12/8 254/6/8 
f 247/36/17 250/7/17 255/7/17 256/36/17 
f 250/7/6 249/11/6 257/11/6 255/7/6 
f 248/12/8 252/3/8 258/3/8 253/12/8 
f 252/3/17 251/2/17 259/2/17 258/3/17 
f 251/2/6 247/36/6 256/36/6 259/2/6 
f 253/12/7 258/3/7 259/2/7 256/36/7 
f 256/36/7 255/7/7 257/11/7 253/12/7 
f 253/12/7 257/11/7 260/5/7 254/6/7 
# 191 polygons - 8 triangles

