# 3ds Max Wavefront OBJ Exporter v0.97b - (c)2007 guruware
# File Created: 08.06.2017 12:00:35

mtllib Rock1.mtl

#
# object Sphere001
#

v  -32.4136 10.8725 -9.1049
v  -18.8971 -10.8725 23.5268
v  -1.6830 23.6231 13.9692
v  52.1054 -15.7844 6.7887
v  8.3206 -27.8653 -1.0024
v  4.1770 -5.5428 -57.1543
v  23.2922 27.8653 -11.0061
v  62.7252 5.5428 -9.1050
v  -9.3395 23.6231 -24.5226
v  20.6253 -20.0898 25.5367
# 10 vertices

vn -0.7032 0.3011 0.6441
vn 0.4439 -0.7188 -0.5351
vn 0.4765 0.4420 -0.7600
vn 0.5075 0.5424 0.6695
vn -0.8022 -0.5156 -0.3012
vn 0.2030 0.5632 -0.8010
vn -0.8118 -0.5177 -0.2702
vn 0.3784 -0.8825 0.2791
vn -0.2414 0.9692 0.0480
vn 0.6520 -0.4449 -0.6140
vn 0.4550 0.2352 0.8589
vn -0.6456 0.7528 0.1284
vn -0.6931 0.2480 -0.6768
vn 0.0122 0.1523 0.9883
vn -0.3405 -0.7622 0.5505
vn 0.4356 0.2563 0.8629
# 16 vertex normals

g Sphere001
usemtl 02___Default
s off
f 1//1 2//1 3//1 
f 4//2 5//2 6//2 
f 7//3 8//3 6//3 
f 7//4 3//4 8//4 
f 6//5 5//5 1//5 
f 7//6 6//6 9//6 
f 1//7 5//7 2//7 
f 10//8 5//8 4//8 
f 7//9 9//9 3//9 
f 8//10 4//10 6//10 
f 8//11 10//11 4//11 
f 9//12 1//12 3//12 
f 9//13 6//13 1//13 
f 3//14 2//14 10//14 
f 2//15 5//15 10//15 
f 3//16 10//16 8//16 
# 0 polygons - 16 triangles

