# 3ds Max Wavefront OBJ Exporter v0.97b - (c)2007 guruware
# File Created: 08.06.2017 12:01:05

mtllib Rock2.mtl

#
# object Sphere002
#

v  47.7403 39.9650 -6.4898
v  81.8401 -26.1559 14.5373
v  66.9792 30.7716 -42.2054
v  36.9669 -26.2277 -47.0153
v  17.1133 -26.4036 -31.6650
v  21.7366 -26.2404 -26.7759
v  39.0586 27.9212 -40.1689
v  68.9680 -26.2157 -49.3495
v  50.0271 -26.3251 27.3177
v  21.0180 -26.3150 14.8344
v  93.3165 -26.3859 -20.4369
v  -22.9636 -26.4359 -9.1049
v  -12.2149 -26.7110 23.5268
v  1.4741 81.2885 13.9692
v  21.3350 95.8863 -11.0061
v  52.6931 19.0730 -9.1050
v  42.8251 1.9232 -33.5442
v  15.4656 68.9418 -35.2029
v  -4.6145 81.2885 -24.5226
v  -7.1751 56.2054 -46.9958
v  44.2480 -26.7732 6.7887
v  35.4568 -26.8018 -19.6771
v  19.2142 -26.8277 25.5367
v  -23.1844 -26.5076 -33.5441
v  6.1341 -26.6436 -57.1543
# 25 vertices

vn 0.6669 1.0430 0.1481
vn -0.6206 0.3619 -0.5587
vn -0.0828 0.4427 -0.8219
vn 0.4317 0.8528 0.5570
vn -0.6236 0.4987 -0.1276
vn 0.6858 1.0243 0.1347
vn -0.6502 0.3987 -0.0171
vn -0.1170 0.6233 0.5457
vn 0.1034 1.1918 -0.2418
vn -0.7354 -0.0329 0.1691
vn 0.6031 0.8605 -0.3640
vn 0.6772 0.7097 0.5298
vn 0.1201 1.0797 -0.4771
vn -0.1036 1.1005 -0.0805
vn 0.6596 -0.3055 -0.0824
vn 0.6326 0.4329 0.6741
vn -0.7563 0.0794 0.0319
vn -0.7893 0.0780 -0.1187
vn 0.0370 0.0055 0.8291
vn 0.6233 0.4607 0.6731
vn 0.3471 0.6183 -0.6601
vn 0.2968 0.6288 -0.6851
vn 0.3835 -0.6146 -0.2910
vn -0.6225 -0.0698 -0.7136
vn 0.5993 0.5676 -0.4595
# 25 vertex normals

g Sphere002
usemtl 02___Default
s off
f 1//1 2//1 3//1 
f 4//2 5//2 6//2 7//2 
f 4//3 7//3 3//3 8//3 
f 2//4 1//4 9//4 
f 10//5 1//5 6//5 
f 2//6 11//6 3//6 
f 6//7 1//7 7//7 
f 9//8 1//8 10//8 
f 7//9 1//9 3//9 
f 12//10 13//10 14//10 
f 15//11 16//11 17//11 18//11 
f 15//12 14//12 16//12 
f 19//13 15//13 18//13 20//13 
f 15//14 19//14 14//14 
f 16//15 21//15 22//15 17//15 
f 16//16 23//16 21//16 
f 19//17 12//17 14//17 
f 19//18 20//18 24//18 12//18 
f 14//19 13//19 23//19 
f 14//20 23//20 16//20 
f 17//21 25//21 18//21 
f 18//22 25//22 20//22 
f 22//23 25//23 17//23 
f 20//24 25//24 24//24 
f 11//25 8//25 3//25 
# 6 polygons - 19 triangles

