# 3ds Max Wavefront OBJ Exporter v0.97b - (c)2007 guruware
# File Created: 17.07.2017 21:40:33

mtllib !!.mtl

#
# object Box001
#

v  -7.8740 0.0000 7.8740
v  -7.8740 0.0000 -7.8740
v  7.8740 0.0000 -7.8740
v  7.8740 0.0000 7.8740
v  -9.3976 81.8736 9.3976
v  9.3976 81.8736 9.3976
v  9.3976 81.8736 -9.3976
v  -9.3976 81.8736 -9.3976
v  -7.8740 -24.0848 7.8740
v  -7.8740 -24.0848 -7.8740
v  7.8740 -24.0848 -7.8740
v  7.8740 -24.0848 7.8740
v  -7.8740 -10.0356 7.8740
v  7.8740 -10.0356 7.8740
v  7.8740 -10.0356 -7.8740
v  -7.8740 -10.0356 -7.8740
# 16 vertices

vn 0.0000 -1.0000 -0.0000
vn 0.0000 1.0000 -0.0000
vn 0.0000 -0.0166 0.9999
vn 0.9999 -0.0166 -0.0000
vn 0.0000 -0.0166 -0.9999
vn -0.9999 -0.0166 -0.0000
vn 0.0000 0.0000 1.0000
vn 1.0000 0.0000 -0.0000
vn 0.0000 0.0000 -1.0000
vn -1.0000 0.0000 -0.0000
# 10 vertex normals

vt 1.0000 0.0000 0.0000
vt 1.0000 1.0000 0.0000
vt 0.0000 1.0000 0.0000
vt 0.0000 0.0000 0.0000
# 4 texture coords

g Box001
usemtl 07___Default
s 2
f 1/1/1 2/2/1 3/3/1 4/4/1 
s 4
f 5/4/2 6/1/2 7/2/2 8/3/2 
s 8
f 1/4/3 4/1/3 6/2/3 5/3/3 
s 16
f 4/4/4 3/1/4 7/2/4 6/3/4 
s 32
f 3/4/5 2/1/5 8/2/5 7/3/5 
s 64
f 2/4/6 1/1/6 5/2/6 8/3/6 
s 2
f 9/1/1 10/2/1 11/3/1 12/4/1 
s 4
f 13/4/2 14/1/2 15/2/2 16/3/2 
s 8
f 9/4/7 12/1/7 14/2/7 13/3/7 
s 16
f 12/4/8 11/1/8 15/2/8 14/3/8 
s 32
f 11/4/9 10/1/9 16/2/9 15/3/9 
s 64
f 10/4/10 9/1/10 13/2/10 16/3/10 
# 12 polygons

